<svg id="svg" fill="#000000" stroke="#000000" width="200px" height="200px" version="1.1" viewBox="144 144 512 512" xmlns="http://www.w3.org/2000/svg">
    <g id="IconSvg_bgCarrier" stroke-width="0"></g>
    <g id="IconSvg_tracerCarrier" stroke-linecap="round" stroke-linejoin="round" stroke="#CCCCCC"></g>
     <g id="IconSvg_iconCarrier">
      <g xmlns="http://www.w3.org/2000/svg">
  <path d="m456.32 424.81c-62.145 0-112.7-50.559-112.7-112.7s50.559-112.7 112.7-112.7 112.7 50.559 112.7 112.7-50.559 112.7-112.7 112.7zm0-201.38c-48.895 0-88.672 39.777-88.672 88.672s39.777 88.672 88.672 88.672 88.672-39.777 88.672-88.672-39.777-88.672-88.672-88.672z"></path>
  <path d="m602.1 468.29c-7.3555-16.652-27.055-24.285-47.887-18.566l-0.32812 0.074219c-0.60547 0.125-1.5352 0.35156-2.5938 0.70703-12.293 4.2305-30.102 10.73-47.281 17.004-9.168 3.3516-18.539 6.7773-27.055 9.8477-2.3672-12.543-11.285-22.695-24.105-26.047-19.723-5.1875-38.113-13.227-57.586-21.766-10.277-4.5078-20.906-9.1445-31.664-13.301-26.375-10.176-51.891-9.2695-75.824 2.6953-10.957 5.4648-21.867 10.984-32.797 16.473-16.098 8.1133-32.746 16.5-49.172 24.609-2.3438 1.1602-9.5234 4.6836-11.992 12.621-2.4688 7.9336 1.3867 14.887 2.6719 17.18l3.3008 5.9453c8.8438 15.871 17.961 32.293 25.996 48.719 2.7461 5.6172 7.4297 13.402 16.172 15.844 9.5469 2.6719 17.938-2.7188 20.68-4.4844 12.043-7.7344 23.301-7.4062 37.633 1.0586 23.25 13.73 41.766 23.301 60.055 31.008 11.715 4.9375 23.199 7.4297 34.637 7.4297 9.8984 0 19.75-1.8633 29.676-5.543 22.598-8.4141 44.16-18.363 69.602-30.73l6.4219-3.125c26.324-12.797 53.531-25.996 80.105-39.5 21.16-10.719 29.523-29.637 21.336-48.152zm-32.219 26.754c-26.375 13.402-53.504 26.574-79.727 39.324l-6.4219 3.125c-24.812 12.066-45.797 21.738-67.484 29.824-15.617 5.8203-30.406 5.3398-46.578-1.4844-17.254-7.2812-34.891-16.398-57.184-29.574-11.184-6.6016-22.141-9.9258-32.797-9.9258-10.328 0-20.355 3.0977-30.027 9.2969-0.40234 0.25-0.73047 0.45312-1.0586 0.62891-0.35156-0.57812-0.75391-1.3359-1.2578-2.3438-8.3125-17.004-17.609-33.703-26.602-49.852l-2.0391-3.6523c15.742-7.7852 31.641-15.793 47.031-23.555 10.906-5.4922 21.816-10.984 32.723-16.449 17.887-8.9414 36.352-9.5234 56.453-1.7617 10.277 3.9531 20.656 8.4883 30.684 12.898 19.445 8.5156 39.574 17.332 61.113 22.973 6.0469 1.5859 7.332 7.3789 6.6016 11.863-0.90625 5.4922-6.8281 6.9258-11.664 7.1289-1.1836 0.050782-2.4922 0.023438-3.9062 0.023438-0.60547 0-1.1836 0-1.7891-0.023438-3.6523-0.42969-57.156-6.5742-84.793-10-0.78125-0.20312-1.7617-0.37891-2.9492-0.42969h-0.37891c-6.4727 0-11.812 5.1406-11.992 11.664-0.17578 5.9961 4.0547 11.082 9.75 12.168 0.48047 0.125 1.1094 0.27734 1.8633 0.35156 15.871 1.9648 38.34 4.6367 54.059 6.5 9.0195 1.0586 17.156 2.0156 23.023 2.6719 2.9727 0.32812 5.3672 0.60547 7.0273 0.78125 1.2852 0.15234 2.5703 0.27734 3.8281 0.27734h0.050781v0.050781c0.65625 0 1.3086 0 1.9648 0.023437 0.75391 0 1.5117 0.023438 2.2656 0.023438 0.95703 0 1.9648-0.023438 2.9961-0.050782 11.84-0.52734 21.461-5.0117 27.559-12.316 11.613-4.0547 26.98-9.6719 41.918-15.141 17.004-6.2227 34.562-12.621 46.629-16.777l0.25-0.050782c0.48047-0.10156 0.95703-0.22656 1.4375-0.35156 9.1172-2.4922 17.18-0.40234 19.598 5.0898 3.6055 8.0078-3.5508 13.699-10.176 17.051z"></path>
  <path d="m496.33 285.16c-3.1758-3.4258-9.0938-5.4922-15.289-0.074219-1.6367 1.4375-3.0742 2.9219-4.4844 4.3828l-10.328 10.68c-4.5859 4.7344-4.5859 4.7344-9.6992 10l-11.109 11.461-1.8125-1.8125c-1.8633-1.8633-3.6289-3.7031-5.4141-5.5664l-0.42969-0.42969c-1.5859-1.6641-3.1992-3.3008-4.8125-4.9375-2.7969-2.8477-5.8203-4.3086-8.9414-4.3086-1.9414 0-4.8359 0.57812-7.5586 3.3516-1.7383 1.7617-6.8281 8.1875 1.082 16.449 4.7109 4.9375 9.4727 9.8242 14.207 14.711l4.3086 4.457c1.9141 1.9648 4.6367 4.2812 8.793 4.6094l0.27734 0.023438h0.27734c5.0898-0.050782 8.0625-3.2734 9.8242-5.2148 0.22656-0.25 0.45312-0.50391 0.67969-0.73047l16.879-17.434c4.6602-4.7852 7.5312-7.7578 20.73-21.41 0.75391-0.78125 1.5117-1.5859 2.2656-2.3945 4.6328-4.9805 4.8594-11.203 0.55469-15.812z"></path>
 </g>

      </g>
      </svg>